<?xml version="1.0" encoding="UTF-8"?>
<svg xmlns="http://www.w3.org/2000/svg" id="Layer_1" data-name="Layer 1" viewBox="0 0 24 24" width="512" height="512"><path d="M24,24H12C5.383,24,0,18.617,0,12S5.383,0,12,0s12,5.383,12,12v12ZM12,2C6.486,2,2,6.486,2,12s4.486,10,10,10h10V12c0-5.514-4.486-10-10-10Zm-1.758,16H6v-4.243l6.879-6.878c1.17-1.17,3.072-1.17,4.242,0,.566,.566,.879,1.32,.879,2.121s-.313,1.555-.879,2.122l-6.879,6.878Zm-2.242-2h1.414l6.293-6.293c.189-.189,.293-.44,.293-.707s-.104-.518-.293-.707c-.391-.391-1.023-.39-1.414,0l-6.293,6.292v1.415Z"/></svg>
